<svg width="136" height="20" viewBox="0 0 136 20" fill="none" xmlns="http://www.w3.org/2000/svg">
<path d="M6.70024 9.93468H12.0456C12.8585 9.93468 13.5442 9.67994 14.1025 9.17047C14.6691 8.661 14.9524 7.9366 14.9524 6.99726C14.9524 6.3047 14.6568 5.68378 14.0656 5.13451C13.4744 4.57727 12.8011 4.29866 12.0456 4.29866H4.43398V19.7738H3.54718V3.43893H12.0456C13.0474 3.43893 13.9301 3.80113 14.6937 4.52553C15.4573 5.24197 15.8392 6.06588 15.8392 6.99726C15.8392 8.14357 15.4697 9.063 14.7307 9.75556C13.9917 10.4481 13.0967 10.7944 12.0456 10.7944H6.70024V9.93468ZM6.70024 11.6541H12.0456C13.3266 11.6541 14.4269 11.2203 15.3465 10.3526C16.2661 9.47695 16.726 8.3585 16.726 6.99726C16.726 5.82707 16.2538 4.80017 15.3095 3.91655C14.3735 3.02498 13.2855 2.57919 12.0456 2.57919H2.66039V19.7738H1.77359V1.71946H12.0456C13.0228 1.71946 13.9383 1.96226 14.7922 2.44785C15.6544 2.93344 16.34 3.58619 16.8491 4.40612C17.3582 5.21809 17.6128 6.0818 17.6128 6.99726C17.6128 8.56547 17.0626 9.87895 15.9623 10.9377C14.8703 11.9885 13.5647 12.5139 12.0456 12.5139H6.70024V11.6541ZM6.70024 13.3736H12.0456C13.1952 13.3736 14.2626 13.099 15.248 12.5497C16.2333 12.0004 17.0216 11.2362 17.6128 10.2571C18.204 9.26998 18.4995 8.18337 18.4995 6.99726C18.4995 5.9226 18.204 4.91559 17.6128 3.97626C17.0298 3.02896 16.2415 2.27272 15.248 1.70752C14.2544 1.14233 13.187 0.859732 12.0456 0.859732H0.886796V19.7738H0V0H12.0456C13.3348 0 14.5459 0.322399 15.679 0.967198C16.8122 1.60404 17.7113 2.46377 18.3764 3.54639C19.0497 4.62106 19.3863 5.77135 19.3863 6.99726C19.3863 8.41422 19.0702 9.66004 18.438 10.7347C17.8139 11.8094 16.9641 12.6492 15.8884 13.2542L18.1793 19.7738H17.2433L15.0509 13.6602C14.7225 13.7875 14.472 13.8751 14.2996 13.9229L16.3565 19.7738H15.4204L13.4128 14.1259C13.3389 14.1418 13.0761 14.1696 12.6245 14.2095L14.5336 19.7738H13.5975L11.7131 14.2333H10.9125L12.7107 19.7738H11.7747L9.96414 14.2333H6.70024V13.3736ZM6.20757 19.7738H5.32078V5.15839H12.0456C12.5958 5.15839 13.0679 5.34148 13.4621 5.70766C13.8644 6.06588 14.0656 6.49575 14.0656 6.99726C14.0656 8.38238 13.3923 9.07494 12.0456 9.07494H6.70024V8.21521H12.0456C12.3987 8.21521 12.6738 8.12765 12.8709 7.95252C13.0761 7.76943 13.1788 7.45101 13.1788 6.99726C13.1788 6.71864 13.0679 6.48779 12.8462 6.3047C12.6327 6.11365 12.3659 6.01812 12.0456 6.01812H6.20757V19.7738Z" fill="#5BFFDA"/>
<path d="M25.7171 19.7738H24.8303V0H25.7171V19.7738ZM23.9435 19.7738H23.0567V0H23.9435V19.7738ZM22.1699 19.7738H21.2831V0H22.1699V19.7738ZM27.4907 15.4752H36.9252V16.3349H27.4907V17.1946H36.9252V18.0544H27.4907V18.9141H36.9252V19.7738H26.6039V0H36.9252V0.859732H27.4907V1.71946H36.9252V2.57919H27.4907V3.43893H36.9252V4.29866H27.4907V7.73758H32.3311V8.59732H27.4907V9.45705H32.3311V10.3168H27.4907V11.1765H32.3311V12.0362H27.4907V15.4752Z" fill="#5BFFDA"/>
<path d="M54.5379 12.884C54.5379 12.5736 54.4394 12.3666 54.2423 12.2631C54.0535 12.1596 53.7743 12.1079 53.4048 12.1079H47.6899V11.2482H53.4048C54.7514 11.2482 55.4247 11.7934 55.4247 12.884C55.4247 13.497 55.24 13.9388 54.8705 14.2095C54.501 14.4801 54.0124 14.6154 53.4048 14.6154H47.6899V13.7557H53.4048C54.1602 13.7557 54.5379 13.4651 54.5379 12.884ZM47.1972 19.7738H46.3104V5.15839H53.4048C53.9632 5.15839 54.4394 5.32556 54.8335 5.6599C55.2277 5.98628 55.4247 6.39624 55.4247 6.88979C55.4247 7.54255 55.24 8.0162 54.8705 8.31074C54.501 8.59732 54.0124 8.7406 53.4048 8.7406H47.6899V7.88087H53.4048C54.1602 7.88087 54.5379 7.55051 54.5379 6.88979C54.5379 6.61914 54.4312 6.40818 54.2177 6.25694C54.0042 6.09773 53.7332 6.01812 53.4048 6.01812H47.1972V19.7738ZM47.6899 9.60034H53.4048C54.2177 9.60034 54.9033 9.3655 55.4617 8.89583C56.0282 8.4182 56.3115 7.74952 56.3115 6.88979C56.3115 6.19723 56.0159 5.59224 55.4247 5.0748C54.8417 4.55737 54.1684 4.29866 53.4048 4.29866H45.4236V19.7738H44.5368V3.43893H53.4048C54.4148 3.43893 55.2975 3.78521 56.0529 4.47777C56.8165 5.16237 57.1983 5.96638 57.1983 6.88979C57.1983 7.6142 57.0218 8.24705 56.6687 8.78837C56.3238 9.32968 55.8558 9.7476 55.2646 10.0421C56.5537 10.4879 57.1983 11.3954 57.1983 12.7646C57.1983 13.8472 56.8288 14.7149 56.0898 15.3677C55.3508 16.0125 54.4558 16.3349 53.4048 16.3349H47.6899V15.4752H53.4048C54.2177 15.4752 54.9033 15.2403 55.4617 14.7707C56.0282 14.293 56.3115 13.6244 56.3115 12.7646C56.3115 12.1835 56.098 11.6701 55.6711 11.2243C55.2441 10.7785 54.6159 10.5198 53.7866 10.4481C53.7045 10.4561 53.5772 10.4601 53.4048 10.4601H47.6899V9.60034ZM58.9719 6.88979C58.9719 8.00426 58.5655 9.01126 57.7526 9.91079C58.5655 10.7864 58.9719 11.7377 58.9719 12.7646C58.9719 13.7597 58.7133 14.6672 58.196 15.4871C57.6869 16.2991 57.0054 16.9319 56.1514 17.3857C55.3057 17.8315 54.3901 18.0544 53.4048 18.0544H47.6899V17.1946H53.4048C54.6857 17.1946 55.786 16.7807 56.7057 15.9528C57.6253 15.1169 58.0851 14.0542 58.0851 12.7646C58.0851 12.3029 57.9619 11.7934 57.7156 11.2362C57.4775 10.671 57.1449 10.2412 56.718 9.94662C57.6294 9.11873 58.0851 8.09979 58.0851 6.88979C58.0851 5.72756 57.6171 4.72056 56.681 3.86879C55.745 3.00906 54.6529 2.57919 53.4048 2.57919H43.65V19.7738H42.7632V1.71946H53.4048C54.3819 1.71946 55.2975 1.9543 56.1514 2.42397C57.0136 2.88567 57.6992 3.51853 58.2083 4.32254C58.7174 5.11859 58.9719 5.97434 58.9719 6.88979ZM58.7625 9.95856C59.4933 9.01126 59.8587 7.98834 59.8587 6.88979C59.8587 5.81513 59.5631 4.81609 58.9719 3.89267C58.3889 2.9613 57.6007 2.22495 56.6071 1.68364C55.6136 1.13437 54.5461 0.859732 53.4048 0.859732H41.8765V19.7738H40.9897V0H53.4048C54.7021 0 55.9133 0.310459 57.0382 0.931376C58.1713 1.55229 59.0704 2.3961 59.7355 3.46281C60.4088 4.52155 60.7455 5.66388 60.7455 6.88979C60.7455 8.05998 60.4047 9.08688 59.7232 9.9705C60.4047 10.886 60.7455 11.8173 60.7455 12.7646C60.7455 13.8313 60.5484 14.8105 60.1543 15.702C59.7602 16.5857 59.2265 17.322 58.5531 17.9111C57.888 18.5001 57.1121 18.9579 56.2253 19.2843C55.3385 19.6106 54.3983 19.7738 53.4048 19.7738H47.6899V18.9141H53.4048C54.267 18.9141 55.0922 18.7589 55.8804 18.4484C56.6687 18.13 57.3543 17.7001 57.9373 17.1588C58.5203 16.6175 58.9842 15.9647 59.3291 15.2005C59.6822 14.4363 59.8587 13.6244 59.8587 12.7646C59.8587 12.3825 59.7643 11.9248 59.5754 11.3914C59.3948 10.8501 59.1238 10.3725 58.7625 9.95856Z" fill="white"/>
<path d="M69.441 9.93468H74.7864C75.5993 9.93468 76.285 9.67994 76.8433 9.17047C77.4099 8.661 77.6932 7.9366 77.6932 6.99726C77.6932 6.3047 77.3976 5.68378 76.8064 5.13451C76.2152 4.57727 75.5419 4.29866 74.7864 4.29866H67.1748V19.7738H66.288V3.43893H74.7864C75.7882 3.43893 76.6709 3.80113 77.4345 4.52553C78.1981 5.24197 78.58 6.06588 78.58 6.99726C78.58 8.14357 78.2105 9.063 77.4715 9.75556C76.7325 10.4481 75.8375 10.7944 74.7864 10.7944H69.441V9.93468ZM69.441 11.6541H74.7864C76.0674 11.6541 77.1677 11.2203 78.0873 10.3526C79.0069 9.47695 79.4668 8.3585 79.4668 6.99726C79.4668 5.82707 78.9946 4.80017 78.0503 3.91655C77.1143 3.02498 76.0263 2.57919 74.7864 2.57919H65.4012V19.7738H64.5144V1.71946H74.7864C75.7636 1.71946 76.6791 1.96226 77.533 2.44785C78.3952 2.93344 79.0808 3.58619 79.5899 4.40612C80.099 5.21809 80.3535 6.0818 80.3535 6.99726C80.3535 8.56547 79.8034 9.87895 78.7031 10.9377C77.611 11.9885 76.3055 12.5139 74.7864 12.5139H69.441V11.6541ZM69.441 13.3736H74.7864C75.936 13.3736 77.0034 13.099 77.9888 12.5497C78.9741 12.0004 79.7624 11.2362 80.3535 10.2571C80.9447 9.26998 81.2403 8.18337 81.2403 6.99726C81.2403 5.9226 80.9447 4.91559 80.3535 3.97626C79.7706 3.02896 78.9823 2.27272 77.9888 1.70752C76.9952 1.14233 75.9278 0.859732 74.7864 0.859732H63.6276V19.7738H62.7408V0H74.7864C76.0756 0 77.2867 0.322399 78.4198 0.967198C79.553 1.60404 80.4521 2.46377 81.1172 3.54639C81.7905 4.62106 82.1271 5.77135 82.1271 6.99726C82.1271 8.41422 81.811 9.66004 81.1788 10.7347C80.5547 11.8094 79.7049 12.6492 78.6292 13.2542L80.9201 19.7738H79.9841L77.7917 13.6602C77.4632 13.7875 77.2128 13.8751 77.0404 13.9229L79.0973 19.7738H78.1612L76.1536 14.1259C76.0797 14.1418 75.8169 14.1696 75.3653 14.2095L77.2744 19.7738H76.3383L74.4539 14.2333H73.6533L75.4515 19.7738H74.5155L72.7049 14.2333H69.441V13.3736ZM68.9484 19.7738H68.0616V5.15839H74.7864C75.3366 5.15839 75.8087 5.34148 76.2029 5.70766C76.6052 6.06588 76.8064 6.49575 76.8064 6.99726C76.8064 8.38238 76.1331 9.07494 74.7864 9.07494H69.441V8.21521H74.7864C75.1395 8.21521 75.4146 8.12765 75.6117 7.95252C75.8169 7.76943 75.9196 7.45101 75.9196 6.99726C75.9196 6.71864 75.8087 6.48779 75.587 6.3047C75.3735 6.11365 75.1067 6.01812 74.7864 6.01812H68.9484V19.7738Z" fill="white"/>
<path d="M92.8303 13.9706L93.1875 13.1109H96.2173L96.5745 13.9706H92.8303ZM92.1405 15.6901L92.4854 14.8304H96.9071L97.2889 15.6901H92.1405ZM91.4508 17.4096L91.7957 16.5498H97.6091L97.9786 17.4096H91.4508ZM84.2456 19.7738H83.2849L91.3523 0H92.313L100.368 19.7738H99.4197L91.8326 1.15825L84.2456 19.7738ZM91.9435 3.20011L92.4485 4.29866L86.1424 19.7738H85.194L91.9435 3.20011ZM92.9288 5.46885L93.3968 6.65098L88.0637 19.7738H87.1031L92.9288 5.46885ZM93.8649 7.83311L94.3329 9.03912L89.9605 19.7738H89.0121L93.8649 7.83311ZM106.095 19.7738H105.135L97.0795 0H98.0279L106.095 19.7738ZM96.1188 0L104.186 19.7738H103.238L95.1704 0H96.1188ZM94.2097 0L102.277 19.7738H101.316L93.2614 0H94.2097Z" fill="white"/>
<path d="M112.968 0H113.855V19.7738H112.968V0ZM111.194 0H112.081V19.7738H111.194V0ZM109.421 0H110.308V19.7738H109.421V0ZM107.647 0H108.534V19.7738H107.647V0Z" fill="white"/>
<path d="M130.679 10.2571L129.792 8.83613V0H130.679V10.2571ZM132.453 13.0751L131.566 11.6303V0H132.453V13.0751ZM134.226 15.9289L133.34 14.4721V0H134.226V15.9289ZM121.516 9.51675L122.402 10.9377V19.7738H121.516V9.51675ZM119.742 6.69874L120.629 8.14357V19.7738H119.742V6.69874ZM117.968 3.84491L118.855 5.30168V19.7738H117.968V3.84491ZM118.276 0H119.311L131.849 19.7738H130.815L118.276 0ZM120.37 0H121.417L133.943 19.7738H132.884L120.37 0ZM122.452 0H123.486L135.113 18.3768V0H136V19.7738C136 19.7738 135.651 19.7738 134.953 19.7738L122.452 0ZM117.082 1.39706V19.7738H116.195V0C116.195 0 116.548 0 117.254 0L129.755 19.7738H128.733L117.082 1.39706Z" fill="white"/>
</svg>
