<svg width="67" height="67" viewBox="0 0 67 67" fill="none" xmlns="http://www.w3.org/2000/svg">
<path d="M20.8409 0H18.4637V2.3772H20.8409V0Z" fill="#5BFFDA"/>
<path d="M25.4568 0H23.0797V2.3772H25.4568V0Z" fill="#5BFFDA"/>
<path d="M32.3806 0H30.0034V2.3772H32.3806V0Z" fill="#5BFFDA"/>
<path d="M34.6887 0H32.3115V2.3772H34.6887V0Z" fill="#5BFFDA"/>
<path d="M43.9204 0H41.5432V2.3772H43.9204V0Z" fill="#5BFFDA"/>
<path d="M48.5363 0H46.1591V2.3772H48.5363V0Z" fill="#5BFFDA"/>
<path d="M20.8409 2.30811H18.4637V4.6853H20.8409V2.30811Z" fill="#5BFFDA"/>
<path d="M32.3806 2.30811H30.0034V4.6853H32.3806V2.30811Z" fill="#5BFFDA"/>
<path d="M34.6887 2.30811H32.3115V4.6853H34.6887V2.30811Z" fill="#5BFFDA"/>
<path d="M36.9965 2.30811H34.6193V4.6853H36.9965V2.30811Z" fill="#5BFFDA"/>
<path d="M39.3046 2.30811H36.9274V4.6853H39.3046V2.30811Z" fill="#5BFFDA"/>
<path d="M41.6124 2.30811H39.2352V4.6853H41.6124V2.30811Z" fill="#5BFFDA"/>
<path d="M43.9204 2.30811H41.5432V4.6853H43.9204V2.30811Z" fill="#5BFFDA"/>
<path d="M46.2283 2.30811H43.8511V4.6853H46.2283V2.30811Z" fill="#5BFFDA"/>
<path d="M20.8409 4.61597H18.4637V6.99316H20.8409V4.61597Z" fill="#5BFFDA"/>
<path d="M27.7647 4.61597H25.3875V6.99316H27.7647V4.61597Z" fill="#5BFFDA"/>
<path d="M30.0728 4.61597H27.6956V6.99316H30.0728V4.61597Z" fill="#5BFFDA"/>
<path d="M32.3806 4.61597H30.0034V6.99316H32.3806V4.61597Z" fill="#5BFFDA"/>
<path d="M43.9204 4.61597H41.5432V6.99316H43.9204V4.61597Z" fill="#5BFFDA"/>
<path d="M46.2283 4.61597H43.8511V6.99316H46.2283V4.61597Z" fill="#5BFFDA"/>
<path d="M48.5363 4.61597H46.1591V6.99316H48.5363V4.61597Z" fill="#5BFFDA"/>
<path d="M25.4568 6.92383H23.0797V9.30102H25.4568V6.92383Z" fill="#5BFFDA"/>
<path d="M27.7647 6.92383H25.3875V9.30102H27.7647V6.92383Z" fill="#5BFFDA"/>
<path d="M39.3046 6.92383H36.9274V9.30102H39.3046V6.92383Z" fill="#5BFFDA"/>
<path d="M41.6124 6.92383H39.2352V9.30102H41.6124V6.92383Z" fill="#5BFFDA"/>
<path d="M46.2283 6.92383H43.8511V9.30102H46.2283V6.92383Z" fill="#5BFFDA"/>
<path d="M25.4568 9.23169H23.0797V11.6089H25.4568V9.23169Z" fill="#5BFFDA"/>
<path d="M27.7647 9.23169H25.3875V11.6089H27.7647V9.23169Z" fill="#5BFFDA"/>
<path d="M36.9965 9.23169H34.6193V11.6089H36.9965V9.23169Z" fill="#5BFFDA"/>
<path d="M39.3046 9.23169H36.9274V11.6089H39.3046V9.23169Z" fill="#5BFFDA"/>
<path d="M46.2283 9.23169H43.8511V11.6089H46.2283V9.23169Z" fill="#5BFFDA"/>
<path d="M48.5363 9.23169H46.1591V11.6089H48.5363V9.23169Z" fill="#5BFFDA"/>
<path d="M20.8409 11.5398H18.4637V13.917H20.8409V11.5398Z" fill="#5BFFDA"/>
<path d="M23.1488 11.5398H20.7716V13.917H23.1488V11.5398Z" fill="#5BFFDA"/>
<path d="M27.7647 11.5398H25.3875V13.917H27.7647V11.5398Z" fill="#5BFFDA"/>
<path d="M30.0728 11.5398H27.6956V13.917H30.0728V11.5398Z" fill="#5BFFDA"/>
<path d="M34.6887 11.5398H32.3115V13.917H34.6887V11.5398Z" fill="#5BFFDA"/>
<path d="M36.9965 11.5398H34.6193V13.917H36.9965V11.5398Z" fill="#5BFFDA"/>
<path d="M43.9204 11.5398H41.5432V13.917H43.9204V11.5398Z" fill="#5BFFDA"/>
<path d="M48.5363 11.5398H46.1591V13.917H48.5363V11.5398Z" fill="#5BFFDA"/>
<path d="M20.8409 13.8477H18.4637V16.2249H20.8409V13.8477Z" fill="#5BFFDA"/>
<path d="M25.4568 13.8477H23.0797V16.2249H25.4568V13.8477Z" fill="#5BFFDA"/>
<path d="M30.0728 13.8477H27.6956V16.2249H30.0728V13.8477Z" fill="#5BFFDA"/>
<path d="M34.6887 13.8477H32.3115V16.2249H34.6887V13.8477Z" fill="#5BFFDA"/>
<path d="M39.3046 13.8477H36.9274V16.2249H39.3046V13.8477Z" fill="#5BFFDA"/>
<path d="M43.9204 13.8477H41.5432V16.2249H43.9204V13.8477Z" fill="#5BFFDA"/>
<path d="M48.5363 13.8477H46.1591V16.2249H48.5363V13.8477Z" fill="#5BFFDA"/>
<path d="M20.8409 16.1558H18.4637V18.533H20.8409V16.1558Z" fill="#5BFFDA"/>
<path d="M23.1488 16.1558H20.7716V18.533H23.1488V16.1558Z" fill="#5BFFDA"/>
<path d="M25.4568 16.1558H23.0797V18.533H25.4568V16.1558Z" fill="#5BFFDA"/>
<path d="M27.7647 16.1558H25.3875V18.533H27.7647V16.1558Z" fill="#5BFFDA"/>
<path d="M32.3806 16.1558H30.0034V18.533H32.3806V16.1558Z" fill="#5BFFDA"/>
<path d="M36.9965 16.1558H34.6193V18.533H36.9965V16.1558Z" fill="#5BFFDA"/>
<path d="M39.3046 16.1558H36.9274V18.533H39.3046V16.1558Z" fill="#5BFFDA"/>
<path d="M48.5363 16.1558H46.1591V18.533H48.5363V16.1558Z" fill="#5BFFDA"/>
<path d="M6.9931 18.4636H4.61591V20.8408H6.9931V18.4636Z" fill="#5BFFDA"/>
<path d="M9.30109 18.4636H6.92389V20.8408H9.30109V18.4636Z" fill="#5BFFDA"/>
<path d="M11.609 18.4636H9.23181V20.8408H11.609V18.4636Z" fill="#5BFFDA"/>
<path d="M16.2249 18.4636H13.8477V20.8408H16.2249V18.4636Z" fill="#5BFFDA"/>
<path d="M20.8409 18.4636H18.4637V20.8408H20.8409V18.4636Z" fill="#5BFFDA"/>
<path d="M30.0728 18.4636H27.6956V20.8408H30.0728V18.4636Z" fill="#5BFFDA"/>
<path d="M34.6887 18.4636H32.3115V20.8408H34.6887V18.4636Z" fill="#5BFFDA"/>
<path d="M43.9204 18.4636H41.5432V20.8408H43.9204V18.4636Z" fill="#5BFFDA"/>
<path d="M50.8442 18.4636H48.467V20.8408H50.8442V18.4636Z" fill="#5BFFDA"/>
<path d="M53.1522 18.4636H50.775V20.8408H53.1522V18.4636Z" fill="#5BFFDA"/>
<path d="M55.4603 18.4636H53.0831V20.8408H55.4603V18.4636Z" fill="#5BFFDA"/>
<path d="M62.384 18.4636H60.0068V20.8408H62.384V18.4636Z" fill="#5BFFDA"/>
<path d="M64.6921 18.4636H62.3149V20.8408H64.6921V18.4636Z" fill="#5BFFDA"/>
<path d="M66.9999 18.4636H64.6227V20.8408H66.9999V18.4636Z" fill="#5BFFDA"/>
<path d="M2.3772 20.7717H0V23.1489H2.3772V20.7717Z" fill="#5BFFDA"/>
<path d="M4.68518 20.7717H2.30798V23.1489H4.68518V20.7717Z" fill="#5BFFDA"/>
<path d="M9.30109 20.7717H6.92389V23.1489H9.30109V20.7717Z" fill="#5BFFDA"/>
<path d="M11.609 20.7717H9.23181V23.1489H11.609V20.7717Z" fill="#5BFFDA"/>
<path d="M13.917 20.7717H11.5398V23.1489H13.917V20.7717Z" fill="#5BFFDA"/>
<path d="M18.5329 20.7717H16.1557V23.1489H18.5329V20.7717Z" fill="#5BFFDA"/>
<path d="M20.8409 20.7717H18.4637V23.1489H20.8409V20.7717Z" fill="#5BFFDA"/>
<path d="M25.4568 20.7717H23.0797V23.1489H25.4568V20.7717Z" fill="#5BFFDA"/>
<path d="M27.7647 20.7717H25.3875V23.1489H27.7647V20.7717Z" fill="#5BFFDA"/>
<path d="M32.3806 20.7717H30.0034V23.1489H32.3806V20.7717Z" fill="#5BFFDA"/>
<path d="M50.8442 20.7717H48.467V23.1489H50.8442V20.7717Z" fill="#5BFFDA"/>
<path d="M53.1522 20.7717H50.775V23.1489H53.1522V20.7717Z" fill="#5BFFDA"/>
<path d="M55.4603 20.7717H53.0831V23.1489H55.4603V20.7717Z" fill="#5BFFDA"/>
<path d="M57.7681 20.7717H55.3909V23.1489H57.7681V20.7717Z" fill="#5BFFDA"/>
<path d="M62.384 20.7717H60.0068V23.1489H62.384V20.7717Z" fill="#5BFFDA"/>
<path d="M66.9999 20.7717H64.6227V23.1489H66.9999V20.7717Z" fill="#5BFFDA"/>
<path d="M2.3772 23.0796H0V25.4568H2.3772V23.0796Z" fill="#5BFFDA"/>
<path d="M4.68518 23.0796H2.30798V25.4568H4.68518V23.0796Z" fill="#5BFFDA"/>
<path d="M6.9931 23.0796H4.61591V25.4568H6.9931V23.0796Z" fill="#5BFFDA"/>
<path d="M11.609 23.0796H9.23181V25.4568H11.609V23.0796Z" fill="#5BFFDA"/>
<path d="M16.2249 23.0796H13.8477V25.4568H16.2249V23.0796Z" fill="#5BFFDA"/>
<path d="M18.5329 23.0796H16.1557V25.4568H18.5329V23.0796Z" fill="#5BFFDA"/>
<path d="M20.8409 23.0796H18.4637V25.4568H20.8409V23.0796Z" fill="#5BFFDA"/>
<path d="M25.4568 23.0796H23.0797V25.4568H25.4568V23.0796Z" fill="#5BFFDA"/>
<path d="M27.7647 23.0796H25.3875V25.4568H27.7647V23.0796Z" fill="#5BFFDA"/>
<path d="M34.6887 23.0796H32.3115V25.4568H34.6887V23.0796Z" fill="#5BFFDA"/>
<path d="M36.9965 23.0796H34.6193V25.4568H36.9965V23.0796Z" fill="#5BFFDA"/>
<path d="M39.3046 23.0796H36.9274V25.4568H39.3046V23.0796Z" fill="#5BFFDA"/>
<path d="M41.6124 23.0796H39.2352V25.4568H41.6124V23.0796Z" fill="#5BFFDA"/>
<path d="M48.5363 23.0796H46.1591V25.4568H48.5363V23.0796Z" fill="#5BFFDA"/>
<path d="M50.8442 23.0796H48.467V25.4568H50.8442V23.0796Z" fill="#5BFFDA"/>
<path d="M53.1522 23.0796H50.775V25.4568H53.1522V23.0796Z" fill="#5BFFDA"/>
<path d="M60.0762 23.0796H57.699V25.4568H60.0762V23.0796Z" fill="#5BFFDA"/>
<path d="M4.68518 25.3875H2.30798V27.7646H4.68518V25.3875Z" fill="#5BFFDA"/>
<path d="M9.30109 25.3875H6.92389V27.7646H9.30109V25.3875Z" fill="#5BFFDA"/>
<path d="M11.609 25.3875H9.23181V27.7646H11.609V25.3875Z" fill="#5BFFDA"/>
<path d="M20.8409 25.3875H18.4637V27.7646H20.8409V25.3875Z" fill="#5BFFDA"/>
<path d="M23.1488 25.3875H20.7716V27.7646H23.1488V25.3875Z" fill="#5BFFDA"/>
<path d="M30.0728 25.3875H27.6956V27.7646H30.0728V25.3875Z" fill="#5BFFDA"/>
<path d="M34.6887 25.3875H32.3115V27.7646H34.6887V25.3875Z" fill="#5BFFDA"/>
<path d="M36.9965 25.3875H34.6193V27.7646H36.9965V25.3875Z" fill="#5BFFDA"/>
<path d="M39.3046 25.3875H36.9274V27.7646H39.3046V25.3875Z" fill="#5BFFDA"/>
<path d="M41.6124 25.3875H39.2352V27.7646H41.6124V25.3875Z" fill="#5BFFDA"/>
<path d="M46.2283 25.3875H43.8511V27.7646H46.2283V25.3875Z" fill="#5BFFDA"/>
<path d="M48.5363 25.3875H46.1591V27.7646H48.5363V25.3875Z" fill="#5BFFDA"/>
<path d="M50.8442 25.3875H48.467V27.7646H50.8442V25.3875Z" fill="#5BFFDA"/>
<path d="M53.1522 25.3875H50.775V27.7646H53.1522V25.3875Z" fill="#5BFFDA"/>
<path d="M55.4603 25.3875H53.0831V27.7646H55.4603V25.3875Z" fill="#5BFFDA"/>
<path d="M60.0762 25.3875H57.699V27.7646H60.0762V25.3875Z" fill="#5BFFDA"/>
<path d="M64.6921 25.3875H62.3149V27.7646H64.6921V25.3875Z" fill="#5BFFDA"/>
<path d="M6.9931 27.6956H4.61591V30.0728H6.9931V27.6956Z" fill="#5BFFDA"/>
<path d="M9.30109 27.6956H6.92389V30.0728H9.30109V27.6956Z" fill="#5BFFDA"/>
<path d="M16.2249 27.6956H13.8477V30.0728H16.2249V27.6956Z" fill="#5BFFDA"/>
<path d="M18.5329 27.6956H16.1557V30.0728H18.5329V27.6956Z" fill="#5BFFDA"/>
<path d="M23.1488 27.6956H20.7716V30.0728H23.1488V27.6956Z" fill="#5BFFDA"/>
<path d="M25.4568 27.6956H23.0797V30.0728H25.4568V27.6956Z" fill="#5BFFDA"/>
<path d="M32.3806 27.6956H30.0034V30.0728H32.3806V27.6956Z" fill="#5BFFDA"/>
<path d="M41.6124 27.6956H39.2352V30.0728H41.6124V27.6956Z" fill="#5BFFDA"/>
<path d="M43.9204 27.6956H41.5432V30.0728H43.9204V27.6956Z" fill="#5BFFDA"/>
<path d="M46.2283 27.6956H43.8511V30.0728H46.2283V27.6956Z" fill="#5BFFDA"/>
<path d="M50.8442 27.6956H48.467V30.0728H50.8442V27.6956Z" fill="#5BFFDA"/>
<path d="M55.4603 27.6956H53.0831V30.0728H55.4603V27.6956Z" fill="#5BFFDA"/>
<path d="M62.384 27.6956H60.0068V30.0728H62.384V27.6956Z" fill="#5BFFDA"/>
<path d="M64.6921 27.6956H62.3149V30.0728H64.6921V27.6956Z" fill="#5BFFDA"/>
<path d="M66.9999 27.6956H64.6227V30.0728H66.9999V27.6956Z" fill="#5BFFDA"/>
<path d="M2.3772 30.0034H0V32.3806H2.3772V30.0034Z" fill="#5BFFDA"/>
<path d="M4.68518 30.0034H2.30798V32.3806H4.68518V30.0034Z" fill="#5BFFDA"/>
<path d="M6.9931 30.0034H4.61591V32.3806H6.9931V30.0034Z" fill="#5BFFDA"/>
<path d="M20.8409 30.0034H18.4637V32.3806H20.8409V30.0034Z" fill="#5BFFDA"/>
<path d="M27.7647 30.0034H25.3875V32.3806H27.7647V30.0034Z" fill="#5BFFDA"/>
<path d="M30.0728 30.0034H27.6956V32.3806H30.0728V30.0034Z" fill="#5BFFDA"/>
<path d="M32.3806 30.0034H30.0034V32.3806H32.3806V30.0034Z" fill="#5BFFDA"/>
<path d="M34.6887 30.0034H32.3115V32.3806H34.6887V30.0034Z" fill="#5BFFDA"/>
<path d="M36.9965 30.0034H34.6193V32.3806H36.9965V30.0034Z" fill="#5BFFDA"/>
<path d="M39.3046 30.0034H36.9274V32.3806H39.3046V30.0034Z" fill="#5BFFDA"/>
<path d="M41.6124 30.0034H39.2352V32.3806H41.6124V30.0034Z" fill="#5BFFDA"/>
<path d="M43.9204 30.0034H41.5432V32.3806H43.9204V30.0034Z" fill="#5BFFDA"/>
<path d="M46.2283 30.0034H43.8511V32.3806H46.2283V30.0034Z" fill="#5BFFDA"/>
<path d="M48.5363 30.0034H46.1591V32.3806H48.5363V30.0034Z" fill="#5BFFDA"/>
<path d="M50.8442 30.0034H48.467V32.3806H50.8442V30.0034Z" fill="#5BFFDA"/>
<path d="M53.1522 30.0034H50.775V32.3806H53.1522V30.0034Z" fill="#5BFFDA"/>
<path d="M57.7681 30.0034H55.3909V32.3806H57.7681V30.0034Z" fill="#5BFFDA"/>
<path d="M60.0762 30.0034H57.699V32.3806H60.0762V30.0034Z" fill="#5BFFDA"/>
<path d="M64.6921 30.0034H62.3149V32.3806H64.6921V30.0034Z" fill="#5BFFDA"/>
<path d="M66.9999 30.0034H64.6227V32.3806H66.9999V30.0034Z" fill="#5BFFDA"/>
<path d="M4.68518 32.3115H2.30798V34.6887H4.68518V32.3115Z" fill="#5BFFDA"/>
<path d="M6.9931 32.3115H4.61591V34.6887H6.9931V32.3115Z" fill="#5BFFDA"/>
<path d="M16.2249 32.3115H13.8477V34.6887H16.2249V32.3115Z" fill="#5BFFDA"/>
<path d="M18.5329 32.3115H16.1557V34.6887H18.5329V32.3115Z" fill="#5BFFDA"/>
<path d="M25.4568 32.3115H23.0797V34.6887H25.4568V32.3115Z" fill="#5BFFDA"/>
<path d="M30.0728 32.3115H27.6956V34.6887H30.0728V32.3115Z" fill="#5BFFDA"/>
<path d="M32.3806 32.3115H30.0034V34.6887H32.3806V32.3115Z" fill="#5BFFDA"/>
<path d="M34.6887 32.3115H32.3115V34.6887H34.6887V32.3115Z" fill="#5BFFDA"/>
<path d="M39.3046 32.3115H36.9274V34.6887H39.3046V32.3115Z" fill="#5BFFDA"/>
<path d="M41.6124 32.3115H39.2352V34.6887H41.6124V32.3115Z" fill="#5BFFDA"/>
<path d="M50.8442 32.3115H48.467V34.6887H50.8442V32.3115Z" fill="#5BFFDA"/>
<path d="M55.4603 32.3115H53.0831V34.6887H55.4603V32.3115Z" fill="#5BFFDA"/>
<path d="M18.5329 34.6194H16.1557V36.9966H18.5329V34.6194Z" fill="#5BFFDA"/>
<path d="M23.1488 34.6194H20.7716V36.9966H23.1488V34.6194Z" fill="#5BFFDA"/>
<path d="M32.3806 34.6194H30.0034V36.9966H32.3806V34.6194Z" fill="#5BFFDA"/>
<path d="M39.3046 34.6194H36.9274V36.9966H39.3046V34.6194Z" fill="#5BFFDA"/>
<path d="M43.9204 34.6194H41.5432V36.9966H43.9204V34.6194Z" fill="#5BFFDA"/>
<path d="M46.2283 34.6194H43.8511V36.9966H46.2283V34.6194Z" fill="#5BFFDA"/>
<path d="M53.1522 34.6194H50.775V36.9966H53.1522V34.6194Z" fill="#5BFFDA"/>
<path d="M57.7681 34.6194H55.3909V36.9966H57.7681V34.6194Z" fill="#5BFFDA"/>
<path d="M60.0762 34.6194H57.699V36.9966H60.0762V34.6194Z" fill="#5BFFDA"/>
<path d="M6.9931 36.9272H4.61591V39.3044H6.9931V36.9272Z" fill="#5BFFDA"/>
<path d="M9.30109 36.9272H6.92389V39.3044H9.30109V36.9272Z" fill="#5BFFDA"/>
<path d="M16.2249 36.9272H13.8477V39.3044H16.2249V36.9272Z" fill="#5BFFDA"/>
<path d="M25.4568 36.9272H23.0797V39.3044H25.4568V36.9272Z" fill="#5BFFDA"/>
<path d="M27.7647 36.9272H25.3875V39.3044H27.7647V36.9272Z" fill="#5BFFDA"/>
<path d="M30.0728 36.9272H27.6956V39.3044H30.0728V36.9272Z" fill="#5BFFDA"/>
<path d="M32.3806 36.9272H30.0034V39.3044H32.3806V36.9272Z" fill="#5BFFDA"/>
<path d="M36.9965 36.9272H34.6193V39.3044H36.9965V36.9272Z" fill="#5BFFDA"/>
<path d="M60.0762 36.9272H57.699V39.3044H60.0762V36.9272Z" fill="#5BFFDA"/>
<path d="M62.384 36.9272H60.0068V39.3044H62.384V36.9272Z" fill="#5BFFDA"/>
<path d="M64.6921 36.9272H62.3149V39.3044H64.6921V36.9272Z" fill="#5BFFDA"/>
<path d="M2.3772 39.2354H0V41.6125H2.3772V39.2354Z" fill="#5BFFDA"/>
<path d="M4.68518 39.2354H2.30798V41.6125H4.68518V39.2354Z" fill="#5BFFDA"/>
<path d="M11.609 39.2354H9.23181V41.6125H11.609V39.2354Z" fill="#5BFFDA"/>
<path d="M13.917 39.2354H11.5398V41.6125H13.917V39.2354Z" fill="#5BFFDA"/>
<path d="M18.5329 39.2354H16.1557V41.6125H18.5329V39.2354Z" fill="#5BFFDA"/>
<path d="M20.8409 39.2354H18.4637V41.6125H20.8409V39.2354Z" fill="#5BFFDA"/>
<path d="M25.4568 39.2354H23.0797V41.6125H25.4568V39.2354Z" fill="#5BFFDA"/>
<path d="M30.0728 39.2354H27.6956V41.6125H30.0728V39.2354Z" fill="#5BFFDA"/>
<path d="M34.6887 39.2354H32.3115V41.6125H34.6887V39.2354Z" fill="#5BFFDA"/>
<path d="M39.3046 39.2354H36.9274V41.6125H39.3046V39.2354Z" fill="#5BFFDA"/>
<path d="M41.6124 39.2354H39.2352V41.6125H41.6124V39.2354Z" fill="#5BFFDA"/>
<path d="M46.2283 39.2354H43.8511V41.6125H46.2283V39.2354Z" fill="#5BFFDA"/>
<path d="M50.8442 39.2354H48.467V41.6125H50.8442V39.2354Z" fill="#5BFFDA"/>
<path d="M53.1522 39.2354H50.775V41.6125H53.1522V39.2354Z" fill="#5BFFDA"/>
<path d="M57.7681 39.2354H55.3909V41.6125H57.7681V39.2354Z" fill="#5BFFDA"/>
<path d="M60.0762 39.2354H57.699V41.6125H60.0762V39.2354Z" fill="#5BFFDA"/>
<path d="M62.384 39.2354H60.0068V41.6125H62.384V39.2354Z" fill="#5BFFDA"/>
<path d="M64.6921 39.2354H62.3149V41.6125H64.6921V39.2354Z" fill="#5BFFDA"/>
<path d="M66.9999 39.2354H64.6227V41.6125H66.9999V39.2354Z" fill="#5BFFDA"/>
<path d="M2.3772 41.5432H0V43.9204H2.3772V41.5432Z" fill="#5BFFDA"/>
<path d="M6.9931 41.5432H4.61591V43.9204H6.9931V41.5432Z" fill="#5BFFDA"/>
<path d="M11.609 41.5432H9.23181V43.9204H11.609V41.5432Z" fill="#5BFFDA"/>
<path d="M13.917 41.5432H11.5398V43.9204H13.917V41.5432Z" fill="#5BFFDA"/>
<path d="M16.2249 41.5432H13.8477V43.9204H16.2249V41.5432Z" fill="#5BFFDA"/>
<path d="M20.8409 41.5432H18.4637V43.9204H20.8409V41.5432Z" fill="#5BFFDA"/>
<path d="M23.1488 41.5432H20.7716V43.9204H23.1488V41.5432Z" fill="#5BFFDA"/>
<path d="M25.4568 41.5432H23.0797V43.9204H25.4568V41.5432Z" fill="#5BFFDA"/>
<path d="M30.0728 41.5432H27.6956V43.9204H30.0728V41.5432Z" fill="#5BFFDA"/>
<path d="M32.3806 41.5432H30.0034V43.9204H32.3806V41.5432Z" fill="#5BFFDA"/>
<path d="M39.3046 41.5432H36.9274V43.9204H39.3046V41.5432Z" fill="#5BFFDA"/>
<path d="M41.6124 41.5432H39.2352V43.9204H41.6124V41.5432Z" fill="#5BFFDA"/>
<path d="M48.5363 41.5432H46.1591V43.9204H48.5363V41.5432Z" fill="#5BFFDA"/>
<path d="M53.1522 41.5432H50.775V43.9204H53.1522V41.5432Z" fill="#5BFFDA"/>
<path d="M55.4603 41.5432H53.0831V43.9204H55.4603V41.5432Z" fill="#5BFFDA"/>
<path d="M57.7681 41.5432H55.3909V43.9204H57.7681V41.5432Z" fill="#5BFFDA"/>
<path d="M62.384 41.5432H60.0068V43.9204H62.384V41.5432Z" fill="#5BFFDA"/>
<path d="M2.3772 43.8511H0V46.2283H2.3772V43.8511Z" fill="#5BFFDA"/>
<path d="M11.609 43.8511H9.23181V46.2283H11.609V43.8511Z" fill="#5BFFDA"/>
<path d="M18.5329 43.8511H16.1557V46.2283H18.5329V43.8511Z" fill="#5BFFDA"/>
<path d="M20.8409 43.8511H18.4637V46.2283H20.8409V43.8511Z" fill="#5BFFDA"/>
<path d="M23.1488 43.8511H20.7716V46.2283H23.1488V43.8511Z" fill="#5BFFDA"/>
<path d="M25.4568 43.8511H23.0797V46.2283H25.4568V43.8511Z" fill="#5BFFDA"/>
<path d="M27.7647 43.8511H25.3875V46.2283H27.7647V43.8511Z" fill="#5BFFDA"/>
<path d="M34.6887 43.8511H32.3115V46.2283H34.6887V43.8511Z" fill="#5BFFDA"/>
<path d="M43.9204 43.8511H41.5432V46.2283H43.9204V43.8511Z" fill="#5BFFDA"/>
<path d="M48.5363 43.8511H46.1591V46.2283H48.5363V43.8511Z" fill="#5BFFDA"/>
<path d="M53.1522 43.8511H50.775V46.2283H53.1522V43.8511Z" fill="#5BFFDA"/>
<path d="M55.4603 43.8511H53.0831V46.2283H55.4603V43.8511Z" fill="#5BFFDA"/>
<path d="M57.7681 43.8511H55.3909V46.2283H57.7681V43.8511Z" fill="#5BFFDA"/>
<path d="M60.0762 43.8511H57.699V46.2283H60.0762V43.8511Z" fill="#5BFFDA"/>
<path d="M64.6921 43.8511H62.3149V46.2283H64.6921V43.8511Z" fill="#5BFFDA"/>
<path d="M66.9999 43.8511H64.6227V46.2283H66.9999V43.8511Z" fill="#5BFFDA"/>
<path d="M2.3772 46.1592H0V48.5364H2.3772V46.1592Z" fill="#5BFFDA"/>
<path d="M6.9931 46.1592H4.61591V48.5364H6.9931V46.1592Z" fill="#5BFFDA"/>
<path d="M9.30109 46.1592H6.92389V48.5364H9.30109V46.1592Z" fill="#5BFFDA"/>
<path d="M11.609 46.1592H9.23181V48.5364H11.609V46.1592Z" fill="#5BFFDA"/>
<path d="M16.2249 46.1592H13.8477V48.5364H16.2249V46.1592Z" fill="#5BFFDA"/>
<path d="M18.5329 46.1592H16.1557V48.5364H18.5329V46.1592Z" fill="#5BFFDA"/>
<path d="M36.9965 46.1592H34.6193V48.5364H36.9965V46.1592Z" fill="#5BFFDA"/>
<path d="M39.3046 46.1592H36.9274V48.5364H39.3046V46.1592Z" fill="#5BFFDA"/>
<path d="M41.6124 46.1592H39.2352V48.5364H41.6124V46.1592Z" fill="#5BFFDA"/>
<path d="M43.9204 46.1592H41.5432V48.5364H43.9204V46.1592Z" fill="#5BFFDA"/>
<path d="M46.2283 46.1592H43.8511V48.5364H46.2283V46.1592Z" fill="#5BFFDA"/>
<path d="M48.5363 46.1592H46.1591V48.5364H48.5363V46.1592Z" fill="#5BFFDA"/>
<path d="M50.8442 46.1592H48.467V48.5364H50.8442V46.1592Z" fill="#5BFFDA"/>
<path d="M53.1522 46.1592H50.775V48.5364H53.1522V46.1592Z" fill="#5BFFDA"/>
<path d="M55.4603 46.1592H53.0831V48.5364H55.4603V46.1592Z" fill="#5BFFDA"/>
<path d="M57.7681 46.1592H55.3909V48.5364H57.7681V46.1592Z" fill="#5BFFDA"/>
<path d="M62.384 46.1592H60.0068V48.5364H62.384V46.1592Z" fill="#5BFFDA"/>
<path d="M20.8409 48.467H18.4637V50.8442H20.8409V48.467Z" fill="#5BFFDA"/>
<path d="M25.4568 48.467H23.0797V50.8442H25.4568V48.467Z" fill="#5BFFDA"/>
<path d="M27.7647 48.467H25.3875V50.8442H27.7647V48.467Z" fill="#5BFFDA"/>
<path d="M32.3806 48.467H30.0034V50.8442H32.3806V48.467Z" fill="#5BFFDA"/>
<path d="M39.3046 48.467H36.9274V50.8442H39.3046V48.467Z" fill="#5BFFDA"/>
<path d="M41.6124 48.467H39.2352V50.8442H41.6124V48.467Z" fill="#5BFFDA"/>
<path d="M43.9204 48.467H41.5432V50.8442H43.9204V48.467Z" fill="#5BFFDA"/>
<path d="M46.2283 48.467H43.8511V50.8442H46.2283V48.467Z" fill="#5BFFDA"/>
<path d="M48.5363 48.467H46.1591V50.8442H48.5363V48.467Z" fill="#5BFFDA"/>
<path d="M57.7681 48.467H55.3909V50.8442H57.7681V48.467Z" fill="#5BFFDA"/>
<path d="M60.0762 48.467H57.699V50.8442H60.0762V48.467Z" fill="#5BFFDA"/>
<path d="M64.6921 48.467H62.3149V50.8442H64.6921V48.467Z" fill="#5BFFDA"/>
<path d="M66.9999 48.467H64.6227V50.8442H66.9999V48.467Z" fill="#5BFFDA"/>
<path d="M25.4568 50.7751H23.0797V53.1523H25.4568V50.7751Z" fill="#5BFFDA"/>
<path d="M39.3046 50.7751H36.9274V53.1523H39.3046V50.7751Z" fill="#5BFFDA"/>
<path d="M41.6124 50.7751H39.2352V53.1523H41.6124V50.7751Z" fill="#5BFFDA"/>
<path d="M46.2283 50.7751H43.8511V53.1523H46.2283V50.7751Z" fill="#5BFFDA"/>
<path d="M48.5363 50.7751H46.1591V53.1523H48.5363V50.7751Z" fill="#5BFFDA"/>
<path d="M53.1522 50.7751H50.775V53.1523H53.1522V50.7751Z" fill="#5BFFDA"/>
<path d="M57.7681 50.7751H55.3909V53.1523H57.7681V50.7751Z" fill="#5BFFDA"/>
<path d="M23.1488 53.083H20.7716V55.4602H23.1488V53.083Z" fill="#5BFFDA"/>
<path d="M25.4568 53.083H23.0797V55.4602H25.4568V53.083Z" fill="#5BFFDA"/>
<path d="M43.9204 53.083H41.5432V55.4602H43.9204V53.083Z" fill="#5BFFDA"/>
<path d="M46.2283 53.083H43.8511V55.4602H46.2283V53.083Z" fill="#5BFFDA"/>
<path d="M48.5363 53.083H46.1591V55.4602H48.5363V53.083Z" fill="#5BFFDA"/>
<path d="M57.7681 53.083H55.3909V55.4602H57.7681V53.083Z" fill="#5BFFDA"/>
<path d="M60.0762 53.083H57.699V55.4602H60.0762V53.083Z" fill="#5BFFDA"/>
<path d="M64.6921 53.083H62.3149V55.4602H64.6921V53.083Z" fill="#5BFFDA"/>
<path d="M66.9999 53.083H64.6227V55.4602H66.9999V53.083Z" fill="#5BFFDA"/>
<path d="M20.8409 55.3909H18.4637V57.7681H20.8409V55.3909Z" fill="#5BFFDA"/>
<path d="M27.7647 55.3909H25.3875V57.7681H27.7647V55.3909Z" fill="#5BFFDA"/>
<path d="M32.3806 55.3909H30.0034V57.7681H32.3806V55.3909Z" fill="#5BFFDA"/>
<path d="M34.6887 55.3909H32.3115V57.7681H34.6887V55.3909Z" fill="#5BFFDA"/>
<path d="M36.9965 55.3909H34.6193V57.7681H36.9965V55.3909Z" fill="#5BFFDA"/>
<path d="M41.6124 55.3909H39.2352V57.7681H41.6124V55.3909Z" fill="#5BFFDA"/>
<path d="M48.5363 55.3909H46.1591V57.7681H48.5363V55.3909Z" fill="#5BFFDA"/>
<path d="M50.8442 55.3909H48.467V57.7681H50.8442V55.3909Z" fill="#5BFFDA"/>
<path d="M53.1522 55.3909H50.775V57.7681H53.1522V55.3909Z" fill="#5BFFDA"/>
<path d="M55.4603 55.3909H53.0831V57.7681H55.4603V55.3909Z" fill="#5BFFDA"/>
<path d="M57.7681 55.3909H55.3909V57.7681H57.7681V55.3909Z" fill="#5BFFDA"/>
<path d="M60.0762 55.3909H57.699V57.7681H60.0762V55.3909Z" fill="#5BFFDA"/>
<path d="M62.384 55.3909H60.0068V57.7681H62.384V55.3909Z" fill="#5BFFDA"/>
<path d="M64.6921 55.3909H62.3149V57.7681H64.6921V55.3909Z" fill="#5BFFDA"/>
<path d="M20.8409 57.699H18.4637V60.0762H20.8409V57.699Z" fill="#5BFFDA"/>
<path d="M23.1488 57.699H20.7716V60.0762H23.1488V57.699Z" fill="#5BFFDA"/>
<path d="M34.6887 57.699H32.3115V60.0762H34.6887V57.699Z" fill="#5BFFDA"/>
<path d="M39.3046 57.699H36.9274V60.0762H39.3046V57.699Z" fill="#5BFFDA"/>
<path d="M46.2283 57.699H43.8511V60.0762H46.2283V57.699Z" fill="#5BFFDA"/>
<path d="M48.5363 57.699H46.1591V60.0762H48.5363V57.699Z" fill="#5BFFDA"/>
<path d="M50.8442 57.699H48.467V60.0762H50.8442V57.699Z" fill="#5BFFDA"/>
<path d="M55.4603 57.699H53.0831V60.0762H55.4603V57.699Z" fill="#5BFFDA"/>
<path d="M60.0762 57.699H57.699V60.0762H60.0762V57.699Z" fill="#5BFFDA"/>
<path d="M62.384 57.699H60.0068V60.0762H62.384V57.699Z" fill="#5BFFDA"/>
<path d="M20.8409 60.0068H18.4637V62.384H20.8409V60.0068Z" fill="#5BFFDA"/>
<path d="M23.1488 60.0068H20.7716V62.384H23.1488V60.0068Z" fill="#5BFFDA"/>
<path d="M25.4568 60.0068H23.0797V62.384H25.4568V60.0068Z" fill="#5BFFDA"/>
<path d="M30.0728 60.0068H27.6956V62.384H30.0728V60.0068Z" fill="#5BFFDA"/>
<path d="M32.3806 60.0068H30.0034V62.384H32.3806V60.0068Z" fill="#5BFFDA"/>
<path d="M34.6887 60.0068H32.3115V62.384H34.6887V60.0068Z" fill="#5BFFDA"/>
<path d="M46.2283 60.0068H43.8511V62.384H46.2283V60.0068Z" fill="#5BFFDA"/>
<path d="M48.5363 60.0068H46.1591V62.384H48.5363V60.0068Z" fill="#5BFFDA"/>
<path d="M50.8442 60.0068H48.467V62.384H50.8442V60.0068Z" fill="#5BFFDA"/>
<path d="M53.1522 60.0068H50.775V62.384H53.1522V60.0068Z" fill="#5BFFDA"/>
<path d="M55.4603 60.0068H53.0831V62.384H55.4603V60.0068Z" fill="#5BFFDA"/>
<path d="M57.7681 60.0068H55.3909V62.384H57.7681V60.0068Z" fill="#5BFFDA"/>
<path d="M60.0762 60.0068H57.699V62.384H60.0762V60.0068Z" fill="#5BFFDA"/>
<path d="M64.6921 60.0068H62.3149V62.384H64.6921V60.0068Z" fill="#5BFFDA"/>
<path d="M23.1488 62.3149H20.7716V64.6921H23.1488V62.3149Z" fill="#5BFFDA"/>
<path d="M34.6887 62.3149H32.3115V64.6921H34.6887V62.3149Z" fill="#5BFFDA"/>
<path d="M36.9965 62.3149H34.6193V64.6921H36.9965V62.3149Z" fill="#5BFFDA"/>
<path d="M39.3046 62.3149H36.9274V64.6921H39.3046V62.3149Z" fill="#5BFFDA"/>
<path d="M41.6124 62.3149H39.2352V64.6921H41.6124V62.3149Z" fill="#5BFFDA"/>
<path d="M43.9204 62.3149H41.5432V64.6921H43.9204V62.3149Z" fill="#5BFFDA"/>
<path d="M48.5363 62.3149H46.1591V64.6921H48.5363V62.3149Z" fill="#5BFFDA"/>
<path d="M53.1522 62.3149H50.775V64.6921H53.1522V62.3149Z" fill="#5BFFDA"/>
<path d="M57.7681 62.3149H55.3909V64.6921H57.7681V62.3149Z" fill="#5BFFDA"/>
<path d="M60.0762 62.3149H57.699V64.6921H60.0762V62.3149Z" fill="#5BFFDA"/>
<path d="M64.6921 62.3149H62.3149V64.6921H64.6921V62.3149Z" fill="#5BFFDA"/>
<path d="M23.1488 64.6228H20.7716V67H23.1488V64.6228Z" fill="#5BFFDA"/>
<path d="M34.6887 64.6228H32.3115V67H34.6887V64.6228Z" fill="#5BFFDA"/>
<path d="M36.9965 64.6228H34.6193V67H36.9965V64.6228Z" fill="#5BFFDA"/>
<path d="M46.2283 64.6228H43.8511V67H46.2283V64.6228Z" fill="#5BFFDA"/>
<path d="M53.1522 64.6228H50.775V67H53.1522V64.6228Z" fill="#5BFFDA"/>
<path d="M57.7681 64.6228H55.3909V67H57.7681V64.6228Z" fill="#5BFFDA"/>
<path d="M62.384 64.6228H60.0068V67H62.384V64.6228Z" fill="#5BFFDA"/>
<path d="M0 0V16.1557H16.1557V0H0ZM13.8477 13.8477H2.30796V2.30796H13.8477V13.8477Z" fill="#5BFFDA"/>
<path d="M50.775 0V16.1557H66.9307V0H50.775ZM64.6228 13.8477H53.083V2.30796H64.6228V13.8477Z" fill="#5BFFDA"/>
<path d="M0 50.7751V66.9308H16.1557V50.7751H0ZM13.8477 64.6229H2.30796V53.0831H13.8477V64.6229Z" fill="#5BFFDA"/>
<path d="M11.5398 4.61597H4.61591V11.5398H11.5398V4.61597Z" fill="#5BFFDA"/>
<path d="M62.3148 4.61597H55.3909V11.5398H62.3148V4.61597Z" fill="#5BFFDA"/>
<path d="M11.5398 55.3909H4.61591V62.3147H11.5398V55.3909Z" fill="#5BFFDA"/>
</svg>
